<svg width="100" height="100" viewBox="0 0 100 100" fill="none" xmlns="http://www.w3.org/2000/svg">
<path d="M50 0C22.4283 0 0 22.4283 0 50C0 77.5717 22.4283 100 50 100C77.5717 100 100 77.5678 100 50C100 22.4322 77.5717 0 50 0ZM50 92.2541C26.7041 92.2541 7.7459 73.2998 7.7459 50C7.7459 26.7002 26.7041 7.7459 50 7.7459C73.2998 7.7459 92.2541 26.7002 92.2541 50C92.2541 73.2998 73.2959 92.2541 50 92.2541Z" fill="white"/>
<path d="M72.1147 55.3449L52.7499 35.9801C51.2393 34.4773 48.7995 34.4773 47.2889 35.9801L27.9241 55.3449C26.6809 56.7934 26.6809 58.9352 27.9241 60.3836C29.3145 62.0064 31.7622 62.1961 33.385 60.8057L50.0001 44.1908L66.6538 60.8059C68.1643 62.3086 70.6042 62.3086 72.1147 60.8059C73.6174 59.2953 73.6174 56.8553 72.1147 55.3449Z" fill="white"/>
</svg>
