<svg width="100" height="100" viewBox="0 0 100 100" fill="none" xmlns="http://www.w3.org/2000/svg">
<g clip-path="url(#clip0)">
<path d="M50 2.0835C22.375 2.0835 0 24.0835 0 51.2168C0 72.9293 14.325 91.3418 34.1875 97.8335C36.6875 98.296 37.6042 96.7752 37.6042 95.471C37.6042 94.3043 37.5625 91.2127 37.5417 87.1168C23.6333 90.0793 20.7 80.5252 20.7 80.5252C18.425 74.8543 15.1375 73.3377 15.1375 73.3377C10.6083 70.2918 15.4875 70.3543 15.4875 70.3543C20.5083 70.696 23.1458 75.4168 23.1458 75.4168C27.6042 82.9293 34.85 80.7585 37.7083 79.5043C38.1583 76.3252 39.4458 74.1627 40.875 72.9335C29.7708 71.7043 18.1 67.4793 18.1 48.6543C18.1 43.2918 20.0375 38.9085 23.2458 35.471C22.6833 34.2293 20.9958 29.2335 23.6833 22.4668C23.6833 22.4668 27.8708 21.1502 37.4333 27.5043C41.4333 26.4127 45.6833 25.871 49.9333 25.846C54.1833 25.871 58.4333 26.4127 62.4333 27.5043C71.9333 21.1502 76.1208 22.4668 76.1208 22.4668C78.8083 29.2335 77.1208 34.2293 76.6208 35.471C79.8083 38.9085 81.7458 43.2918 81.7458 48.6543C81.7458 67.5293 70.0583 71.6835 58.9333 72.8918C60.6833 74.3668 62.3083 77.3793 62.3083 81.9835C62.3083 88.5585 62.2458 93.8418 62.2458 95.4377C62.2458 96.7252 63.1208 98.2627 65.6833 97.771C85.6875 91.321 100 72.896 100 51.2168C100 24.0835 77.6125 2.0835 50 2.0835Z" fill="white"/>
</g>
<defs>
<clipPath id="clip0">
<rect width="100" height="100" fill="white"/>
</clipPath>
</defs>
</svg>
